:FULLY-SPECIFIED
:FORCE-ALL-JOINTS-BE-3DOF
:DEGREES
612
root -4.29494 15.7669 -40.5009 357.714 -74.6025 368.573
lfemur -7.07798 13.17 -15.6653
ltibia 42.8572 0 0
lfoot -21.3308 28.7018 0
ltoes -23.5764 0 0
rfemur -43.6925 -31.5412 17.9245
rtibia 79.8215 0 0
rfoot -13.3412 -18.1352 0
rtoes 2.63282 0 0
lowerback 11.3664 4.96225 -6.3694
upperback -2.37239 5.56492 -1.18439
thorax -9.4375 2.98229 1.20322
lowerneck 1.99151 -10.8603 -11.782
upperneck -1.12583 -14.7848 11.6992
head 1.10399 -7.44462 5.08872
lclavicle -8.52936e-15 2.3556e-14 0
lhumerus -72.0758 -24.5031 105.259
lradius 102.532 0 0
lwrist 55.5535 0 0
lhand 7.51595 55.9213 0
lfingers 7.12502 0 0
lthumb 32.746 82.766 0
rclavicle -8.52936e-15 2.3556e-14 0
rhumerus 25.9475 26.9099 -44.4676
rradius 110.849 0 0
rwrist -23.7175 0 0
rhand -14.7184 -28.9478 0
rfingers 7.12502 0 0
rthumb 11.4348 -58.5697 0
613
root -4.31769 15.7632 -40.4793 358.467 -75.0803 368.02
lfemur -7.19478 13.2334 -15.7262
ltibia 43.0641 0 0
lfoot -21.3521 28.9544 0
ltoes -23.6302 0 0
rfemur -43.1365 -31.5835 18.2709
rtibia 79.0401 0 0
rfoot -14.0629 -18.8131 0
rtoes 1.90441 0 0
lowerback 11.0983 4.97578 -6.32196
upperback -2.46612 5.60577 -1.18873
thorax -9.38121 3.00151 1.18351
lowerneck 1.86413 -10.7785 -11.7167
upperneck -1.07729 -14.6663 11.7076
head 1.12154 -7.38201 5.07987
lclavicle -1.44899e-14 2.20651e-14 0
lhumerus -72.0885 -24.4758 105.33
lradius 102.546 0 0
lwrist 55.0508 0 0
lhand 6.31372 55.1717 0
lfingers 7.12502 0 0
lthumb 31.5936 82.1666 0
rclavicle -1.44899e-14 2.20651e-14 0
rhumerus 26.035 26.1722 -44.7199
rradius 109.258 0 0
rwrist -24.2862 0 0
rhand -15.4455 -29.1512 0
rfingers 7.12502 0 0
rthumb 10.7329 -58.7916 0
614
root -4.34044 15.7594 -40.4578 359.22 -75.5581 367.467
lfemur -7.31158 13.2968 -15.7871
ltibia 43.2709 0 0
lfoot -21.3735 29.2069 0
ltoes -23.6841 0 0
rfemur -42.5805 -31.6257 18.6173
rtibia 78.2586 0 0
rfoot -14.7846 -19.4911 0
rtoes 1.17601 0 0
lowerback 10.8302 4.98931 -6.27452
upperback -2.55986 5.64662 -1.19308
thorax -9.32492 3.02073 1.16381
lowerneck 1.73675 -10.6967 -11.6513
upperneck -1.02875 -14.5479 11.716
head 1.13908 -7.3194 5.07101
lclavicle -2.04505e-14 2.05743e-14 0
lhumerus -72.1011 -24.4484 105.4
lradius 102.56 0 0
lwrist 54.548 0 0
lhand 5.11148 54.4221 0
lfingers 7.12502 0 0
lthumb 30.4412 81.5672 0
rclavicle -2.04505e-14 2.05743e-14 0
rhumerus 26.1224 25.4346 -44.9723
rradius 107.667 0 0
rwrist -24.8548 0 0
rhand -16.1726 -29.3547 0
rfingers 7.12502 0 0
rthumb 10.031 -59.0134 0
615
root -4.36319 15.7557 -40.4362 359.973 -76.0359 366.914
lfemur -7.42838 13.3602 -15.8481
ltibia 43.4777 0 0
lfoot -21.3948 29.4594 0
ltoes -23.7379 0 0
rfemur -42.0245 -31.668 18.9636
rtibia 77.4771 0 0
rfoot -15.5063 -20.1691 0
rtoes 0.447599 0 0
lowerback 10.5621 5.00284 -6.22708
upperback -2.6536 5.68747 -1.19742
thorax -9.26863 3.03995 1.1441
lowerneck 1.60937 -10.6149 -11.586
upperneck -0.980212 -14.4294 11.7244
head 1.15663 -7.25678 5.06216
lclavicle -2.6411e-14 1.90834e-14 0
lhumerus -72.1137 -24.4211 105.471
lradius 102.575 0 0
lwrist 54.0453 0 0
lhand 3.90925 53.6724 0
lfingers 7.12502 0 0
lthumb 29.2887 80.9679 0
rclavicle -2.6411e-14 1.90834e-14 0
rhumerus 26.2099 24.697 -45.2246
rradius 106.076 0 0
rwrist -25.4234 0 0
rhand -16.8997 -29.5581 0
rfingers 7.12502 0 0
rthumb 9.32915 -59.2352 0
